<svg xmlns="http://www.w3.org/2000/svg" viewBox="0 0 40 40">
  <defs>
    <linearGradient id="g" x1="0" y1="0" x2="40" y2="40" gradientUnits="userSpaceOnUse">
      <stop stop-color="#10D9A0"/>
      <stop offset="1" stop-color="#2DD4BF"/>
    </linearGradient>
  </defs>
  <path d="M20 4C12 4 6 10 6 18c0 6 4 11 10 13-1-4 0-9 4-13 4-4 9-5 13-4-2-6-7-10-13-10z" fill="url(#g)"/>
  <path d="M20 36c8 0 14-6 14-14 0-3-1-6-3-9-3 5-8 9-14 11 0 4-2 8-5 10 2 1 5 2 8 2z" fill="url(#g)" opacity="0.55"/>
</svg>
